<svg width="150" height="150" viewBox="0 0 150 150" fill="none" xmlns="http://www.w3.org/2000/svg">
<path fill-rule="evenodd" clip-rule="evenodd" d="M43.29 68.79C47.67 68.79 50.31 69.57 51.66 71.19C52.38 72.09 52.77 73.26 52.77 74.79C52.77 75.63 52.68 76.56 52.44 77.61L49.44 92.1C49.02 94.11 48.78 95.64 48.78 96.9C48.78 97.29 48.81 97.68 48.87 98.04H40.68C40.68 97.95 40.68 97.86 40.68 97.77C40.68 97.17 40.71 96.54 40.77 95.88L40.86 94.68H40.41L40.23 94.95C38.76 97.32 35.43 98.79 32.55 98.79C29.67 98.79 28.47 98.19 27.51 96.99C26.43 95.67 26.16 93.6 26.73 90.81C27.84 85.41 30.3 83.13 36.48 81.75L40.56 80.82C42.99 80.28 44.16 79.2 44.58 77.13C44.82 75.99 44.7 75.09 44.19 74.49C43.74 73.92 42.99 73.65 42.03 73.65C39.84 73.65 38.67 74.79 37.95 77.61H30.63C32.61 70.02 39.36 68.85 43.29 68.85V68.79ZM43.2 83.7C43.2 83.7 43.02 83.85 42.72 83.97C42.21 84.18 41.04 84.36 40.35 84.54C39.81 84.69 39.18 84.84 38.52 85.11C36.72 85.86 35.82 87.12 35.34 89.37C35.07 90.69 35.22 91.8 35.82 92.52C36.27 93.06 36.9 93.33 37.68 93.33C40.89 93.33 41.88 90.27 42.36 87.96L43.26 83.67L43.2 83.7Z" fill="#BEBEC0"/>
<path fill-rule="evenodd" clip-rule="evenodd" d="M72.6001 95.46C70.8601 93.33 70.5301 90 71.7301 84.03C74.3401 71.07 79.2601 68.79 83.5501 68.79C87.8401 68.79 88.6501 69.54 89.0101 73.11L89.0701 73.68H89.6701C89.6701 73.68 90.3601 70.32 90.5101 69.57H98.49C98.1901 70.98 92.5801 98.01 92.5801 98.01C91.1701 104.79 86.8201 108.18 78.8101 108.18C70.8001 108.18 70.2901 103.8 70.1401 102.45C70.0801 101.94 70.2601 100.41 70.2601 100.41H78.0001C78.0001 101.1 78.0601 102.12 78.3001 102.42C78.6301 102.81 78.9001 103.29 80.1301 103.29C81.3601 103.29 83.31 102.81 84.09 99.12L85.4101 92.73H84.7801L84.6001 93.03C83.0101 95.79 80.0701 97.17 76.9501 97.17C73.8301 97.17 73.6201 96.6 72.6901 95.43L72.6001 95.46ZM80.5201 83.43C79.6501 87.66 79.6801 89.28 80.5201 90.3C80.9401 90.81 81.57 91.08 82.44 91.08C84.87 91.08 86.0401 89.61 87.2701 83.67C88.1401 79.41 88.23 76.71 87.39 75.69C86.97 75.18 86.3701 74.94 85.5301 74.94C83.0401 74.94 81.6901 77.49 80.4601 83.43H80.5201Z" fill="#BEBEC0"/>
<path fill-rule="evenodd" clip-rule="evenodd" d="M111.24 69.57C110.97 70.95 105.54 97.11 105.36 98.01H96.75C97.05 96.63 102.45 70.47 102.63 69.57H111.24Z" fill="#BEBEC0"/>
<path fill-rule="evenodd" clip-rule="evenodd" d="M127.08 60.06C126.78 61.47 119.43 97.05 119.22 97.98H110.61C110.91 96.57 118.26 60.96 118.47 60.06H127.08Z" fill="#BEBEC0"/>
<path fill-rule="evenodd" clip-rule="evenodd" d="M140.91 60.06C140.61 61.47 133.26 97.05 133.05 97.98H124.44C124.74 96.57 132.09 60.96 132.3 60.06H140.91Z" fill="#BEBEC0"/>
<path fill-rule="evenodd" clip-rule="evenodd" d="M73.8301 68.79C71.0101 68.79 67.6501 70.77 66.0001 73.95L65.8201 74.28H65.1901C65.1901 74.28 65.9401 70.62 66.1501 69.57H65.4001C64.4701 69.57 58.4101 69.57 57.2101 69.57C57.2701 69.93 57.3001 70.29 57.3001 70.71C57.3001 71.61 57.1801 72.69 56.9401 73.95C55.3501 81.66 52.1701 96.99 51.9601 98.04H60.6001C61.1401 95.37 63.8401 82.35 63.8401 82.35C64.6501 78.42 66.9601 76.62 71.0701 76.62C75.1801 76.62 72.3901 76.65 73.0201 76.74C73.2001 75.81 74.4301 69.99 74.6701 68.82H73.8301V68.79Z" fill="#BEBEC0"/>
<path fill-rule="evenodd" clip-rule="evenodd" d="M2.46004 96.51C0.300041 93.87 0.210041 89.01 2.13004 79.74C5.19004 64.92 9.63004 59.91 19.71 59.91C29.79 59.91 26.55 60.87 28.11 62.76C29.1 63.99 29.61 65.64 29.64 67.74C29.64 68.88 29.52 70.14 29.22 71.55C29.22 71.55 28.95 72.81 28.8 73.53H20.31C20.31 73.53 20.94 69.48 20.94 68.58C20.94 67.59 20.91 67.02 20.52 66.51C20.13 66 19.53 65.58 18.6 65.58C14.85 65.58 13.62 69.15 11.49 79.47C9.84004 87.48 9.24004 91.17 10.53 92.73C11.01 93.33 11.76 93.6 12.78 93.6C15.72 93.6 16.89 91.08 18.39 84.03H26.94C26.76 84.84 26.49 86.19 26.49 86.19C24.69 94.89 19.59 99.3 11.34 99.3C3.09004 99.3 4.08004 98.4 2.52004 96.51H2.46004Z" fill="#BEBEC0"/>
<path fill-rule="evenodd" clip-rule="evenodd" d="M142.74 60.06H145.32L145.23 60.48H144.15L143.37 64.2H142.92L143.7 60.48H142.65L142.74 60.06Z" fill="#BEBEC0"/>
<path fill-rule="evenodd" clip-rule="evenodd" d="M148.44 60.06H149.25L148.41 64.17H147.96L148.65 60.78C148.68 60.6 148.74 60.42 148.77 60.27C148.68 60.51 148.59 60.66 148.53 60.81L146.97 64.17H146.43L146.28 60.75C146.28 60.6 146.28 60.48 146.28 60.24C146.25 60.42 146.22 60.6 146.19 60.78L145.5 64.17H145.05L145.89 60.06H146.7L146.85 63.27C146.85 63.45 146.85 63.63 146.82 63.87C146.88 63.66 146.97 63.45 147.06 63.24L148.53 60.03L148.44 60.06Z" fill="#BEBEC0"/>
<path fill-rule="evenodd" clip-rule="evenodd" d="M111.96 66.21C112.65 50.58 93.78 38.85 76.2 42.48C58.62 46.14 50.13 61.44 47.91 66.15H50.79C54.63 59.67 58.53 54.66 65.19 52.77C69.42 51.57 72.72 51.84 80.88 56.4C84.63 58.5 93.15 64.8 102.27 66.06C106.23 66.6 111.96 66.15 111.96 66.15V66.21Z" fill="#E6E6E6"/>
</svg>
