<svg width="150" height="150" viewBox="0 0 150 150" fill="none" xmlns="http://www.w3.org/2000/svg">
<path fill-rule="evenodd" clip-rule="evenodd" d="M32.28 61.05C14.7 68.85 4.77003 78.66 7.56003 88.44C11.88 103.62 44.85 109.68 83.19 103.26C121.56 96.84 146.01 83.61 144.78 67.41C144.33 61.41 139.71 55.02 130.56 51.81C130.56 51.81 130.32 51.72 130.38 51.6C130.44 51.45 130.65 51.48 130.65 51.48C142.56 54.93 147.18 60.6 148.77 67.5C152.7 84.72 131.91 104.85 83.97 112.89C36.06 120.93 6.51003 111.6 1.23003 93.12C-1.91997 82.11 9.75003 69.69 31.89 60.51C31.89 60.51 32.34 60.36 32.43 60.63C32.55 60.9 32.25 61.08 32.25 61.08" fill="#E6E6E6"/>
<path d="M40.29 34.26C41.22 34.26 44.49 34.47 46.92 34.98C52.89 36.09 52.95 36.39 52.95 42.6C52.95 48.81 52.95 43.47 52.47 43.47C50.37 43.47 49.41 36.42 40.41 36.42C31.41 36.42 24.39 45.15 24.39 58.83C24.39 72.51 29.16 79.2 39.87 79.2C50.58 79.2 48.42 76.26 50.04 74.07C51.6 71.97 52.2 70.65 52.89 70.65C53.58 70.65 53.7 70.95 53.7 71.25C53.7 75.06 52.77 77.25 52.41 78.06C51.99 79.17 46.5 81.45 40.35 81.45C27.66 81.45 16.29 72.93 16.29 58.38C16.29 43.83 23.94 34.29 40.29 34.29" fill="#BEBEC0"/>
<path d="M68.64 53.97C68.64 55.8 68.94 56.4 70.47 56.4H86.67C90.57 56.4 91.02 56.25 91.02 55.38V41.4C91.02 38.67 91.02 38.31 87.21 37.65C86.19 37.5 85.29 37.35 85.29 36.54C85.29 35.28 86.4 35.28 87.42 35.28C89.76 35.28 91.83 35.58 94.41 35.58C96.99 35.58 99.99 35.28 101.85 35.28C103.71 35.28 103.98 35.28 103.98 36.3C103.98 37.32 102.87 37.32 99.72 37.62C98.4 37.71 97.38 38.58 97.38 40.62V75.42C97.38 77.46 98.64 78.12 100.62 78.21C102.39 78.27 103.92 78.36 103.92 79.53C103.92 80.7 102.6 80.55 101.79 80.55C100.98 80.55 99 80.25 93.57 80.25C88.14 80.25 86.22 80.55 85.41 80.55C84.6 80.55 83.94 80.4 83.94 79.59C83.94 78.78 85.62 78.27 87.24 78.18C90.33 77.97 91.05 76.92 91.05 72.24V60.69C91.05 59.07 90.54 58.92 87.45 58.86H74.85C69.54 58.86 68.67 59.31 68.67 60.63V75.42C68.67 77.25 70.29 77.7 73.02 78.21C73.83 78.36 75.45 78.51 75.45 79.62C75.45 80.73 74.43 80.58 73.83 80.58C72.36 80.58 70.08 80.28 66.03 80.28C59.34 80.28 57.87 80.58 57.21 80.58C56.55 80.58 55.29 80.58 55.29 79.77C55.29 78.6 57.21 78.51 58.53 78.24C60.6 77.79 62.34 77.49 62.34 75V41.25C62.34 38.4 62.04 38.31 57.99 37.65C57.12 37.5 56.22 37.35 56.22 36.24C56.22 35.13 57.03 35.28 57.84 35.28C60.06 35.28 62.19 35.58 64.38 35.58C66.57 35.58 69.81 35.28 72.54 35.28C75.27 35.28 74.67 35.49 74.67 36.3C74.67 37.56 72.9 37.47 71.28 37.62C69.66 37.77 68.64 38.58 68.64 40.71V53.94V53.97Z" fill="#BEBEC0"/>
<path d="M130.59 45.42C130.59 45.72 130.38 46.02 129.93 46.02C127.44 46.02 129.93 36.75 119.94 36.75C109.95 36.75 111.93 39.99 111.93 43.59C111.93 54.18 133.98 52.8 133.98 67.92C133.98 83.04 127.14 81.6 118.23 81.6C109.32 81.6 113.61 81 111.09 80.49C106.53 79.53 105.72 78.21 105.72 73.71C105.72 69.21 105.93 67.32 107.4 67.32C108.87 67.32 107.7 69.45 109.89 73.5C110.64 74.82 113.13 79.08 119.31 79.08C125.49 79.08 129.09 74.82 129.09 71.13C129.09 59.97 107.04 60.69 107.04 46.56C107.04 32.43 111.6 34.2 120.93 34.2C130.26 34.2 123.42 34.29 124.89 34.56C130.56 35.67 130.56 36.48 130.56 39.27V45.39L130.59 45.42Z" fill="#BEBEC0"/>
<path d="M133.92 37.35C133.92 36.06 134.94 35.01 136.26 35.01C137.58 35.01 138.6 36.06 138.6 37.32C138.6 38.61 137.58 39.66 136.26 39.66C134.94 39.66 133.92 38.61 133.92 37.32M138.3 37.32C138.3 36.18 137.43 35.22 136.23 35.22C135.03 35.22 134.16 36.18 134.16 37.32C134.16 38.46 135.03 39.39 136.23 39.39C137.43 39.39 138.3 38.43 138.3 37.32ZM135.21 36.06H136.38C136.98 36.06 137.4 36.3 137.4 36.9C137.4 37.5 137.19 37.56 136.89 37.68L137.49 38.55H136.68L136.17 37.8H135.87V38.55H135.18V36.09L135.21 36.06ZM136.35 37.23C136.59 37.23 136.74 37.11 136.74 36.93C136.74 36.75 136.59 36.63 136.35 36.63H135.9V37.23H136.35Z" fill="#131309"/>
</svg>
