<svg width="150" height="150" viewBox="0 0 150 150" fill="none" xmlns="http://www.w3.org/2000/svg">
<path opacity="0.4" d="M23.13 55.92L7.13996 60.21C6.65996 60.33 6.17996 60.6 5.81996 60.96C5.42996 61.35 5.18996 61.8 5.06996 62.28L0.779962 78.27C0.689962 78.6 0.779962 78.96 1.01996 79.2C1.13996 79.32 1.31996 79.41 1.49996 79.47C8.15996 81.09 14.85 79.86 19.77 74.94C21.57 81.69 26.76 86.1 33.33 88.02C33.51 88.08 33.69 88.08 33.87 88.02C34.23 87.93 34.47 87.66 34.56 87.33L38.85 71.34C39 70.86 39 70.32 38.85 69.81C38.7 69.3 38.43 68.85 38.07 68.49L26.37 56.79C26.13 56.55 25.77 56.46 25.44 56.55C25.26 56.61 25.11 56.7 24.99 56.82C24.81 57 24.66 57.18 24.48 57.36C24.42 57.12 24.36 56.88 24.3 56.64C24.27 56.46 24.18 56.31 24.03 56.16C23.85 55.98 23.61 55.89 23.34 55.89C23.07 55.89 23.16 55.89 23.1 55.92" fill="url(#paint0_linear_539_2102)"/>
<mask id="mask0_539_2102" style="mask-type:luminance" maskUnits="userSpaceOnUse" x="1" y="74" width="32" height="21">
<path d="M1.67997 80.13C1.55997 80.25 1.43997 80.4 1.40997 80.58C1.31997 80.91 1.40997 81.27 1.64997 81.51L13.35 93.21C13.71 93.57 14.16 93.84 14.67 93.99C15.18 94.14 15.72 94.11 16.2 93.99L32.19 89.7C32.52 89.61 32.79 89.37 32.88 89.01C32.94 88.83 32.91 88.65 32.88 88.47C30.96 81.9 26.55 76.71 19.8 74.91C18.24 74.49 16.71 74.28 15.18 74.28C10.17 74.28 5.48997 76.47 1.67997 80.1" fill="white"/>
</mask>
<g mask="url(#mask0_539_2102)">
<path d="M32.9399 74.31H1.31995V94.14H32.9399V74.31Z" fill="#BEBEC0"/>
</g>
<path d="M24.48 57.39C20.1 62.25 18.03 68.46 19.77 74.94C24.51 70.2 25.86 63.78 24.48 57.39Z" fill="#D6D6D6"/>
<mask id="mask1_539_2102" style="mask-type:luminance" maskUnits="userSpaceOnUse" x="2" y="74" width="18" height="7">
<path d="M2.21997 79.65C8.63997 81.03 15.03 79.71 19.77 74.94C18.21 74.52 16.68 74.31 15.15 74.31C10.38 74.31 5.90997 76.29 2.21997 79.62" fill="white"/>
</mask>
<g mask="url(#mask1_539_2102)">
<path d="M18.5807 69.9172L0.527588 74.7545L3.37719 85.3894L21.4303 80.552L18.5807 69.9172Z" fill="url(#paint1_linear_539_2102)"/>
</g>
<mask id="mask2_539_2102" style="mask-type:luminance" maskUnits="userSpaceOnUse" x="19" y="74" width="14" height="14">
<path d="M19.77 74.94C21.51 81.42 26.4 85.77 32.61 87.78C30.6 81.54 26.25 76.65 19.77 74.91V74.94Z" fill="white"/>
</mask>
<g mask="url(#mask2_539_2102)">
<path d="M26.2105 68.4947L13.3553 81.3499L26.2105 94.2051L39.0658 81.3499L26.2105 68.4947Z" fill="url(#paint2_linear_539_2102)"/>
</g>
<path d="M56.76 80.76C55.62 81.18 54.45 81.33 53.25 81.33C49.02 81.33 46.38 79.17 46.38 75.03C46.38 70.89 48.96 68.79 53.31 68.79C57.66 68.79 55.56 68.88 56.55 69.3C56.91 69.45 57.06 69.69 56.88 69.96L56.22 70.92C56.07 71.13 55.77 71.22 55.41 71.13C54.9 70.98 54.24 70.74 53.61 70.71C50.7 70.59 49.86 71.97 49.86 75.09C49.86 78.21 50.67 79.5 53.67 79.41C54.57 79.38 54.96 79.08 55.53 78.9C55.83 78.81 56.22 78.87 56.34 79.08L57 80.19C57.18 80.49 57 80.73 56.76 80.82M93.15 80.82C92.01 81.24 90.84 81.39 89.64 81.39C85.41 81.39 82.77 79.23 82.77 75.09C82.77 70.95 85.35 68.85 89.7 68.85C94.05 68.85 91.95 68.94 92.94 69.36C93.3 69.51 93.45 69.75 93.27 70.02L92.61 70.98C92.46 71.19 92.16 71.28 91.8 71.19C91.29 71.04 90.63 70.8 90 70.77C87.09 70.65 86.25 72.03 86.25 75.15C86.25 78.27 87.06 79.56 90.06 79.47C90.96 79.44 91.35 79.14 91.92 78.96C92.22 78.87 92.61 78.93 92.73 79.14L93.39 80.25C93.57 80.55 93.39 80.79 93.15 80.88M64.17 81.45C60.06 81.45 57.99 79.29 57.99 75.24C57.99 71.19 60.03 68.91 64.17 68.91C68.31 68.91 70.29 71.04 70.29 75.24C70.29 79.44 68.31 81.45 64.17 81.45ZM64.17 79.5C66.45 79.5 66.84 78.93 66.84 75.18C66.84 71.43 66.48 70.83 64.17 70.83C61.86 70.83 61.5 71.61 61.5 75.18C61.5 78.75 61.89 79.5 64.17 79.5ZM100.56 81.45C96.45 81.45 94.38 79.29 94.38 75.24C94.38 71.19 96.42 68.91 100.56 68.91C104.7 68.91 106.68 71.04 106.68 75.24C106.68 79.44 104.7 81.45 100.56 81.45ZM100.56 79.5C102.84 79.5 103.23 78.93 103.23 75.18C103.23 71.43 102.87 70.83 100.56 70.83C98.25 70.83 97.89 71.61 97.89 75.18C97.89 78.75 98.28 79.5 100.56 79.5ZM76.08 71.76V73.92H80.4C80.79 73.92 81.12 74.16 81.12 74.43V75.42C81.12 75.69 80.79 75.93 80.4 75.93H76.08V80.82C76.08 81.09 75.75 81.33 75.39 81.33H73.41C73.02 81.33 72.72 81.09 72.72 80.82V71.58C72.72 70.17 73.86 69.03 75.27 69.03H81.06C81.45 69.03 81.75 69.27 81.75 69.54V70.62C81.75 70.89 81.42 71.13 81.06 71.13H76.77C76.41 71.13 76.14 71.4 76.14 71.76M118.68 80.7C118.68 81.18 118.8 81.33 119.25 81.36C120 81.39 120.75 81.39 121.5 81.36C121.95 81.36 122.13 81.09 122.13 80.64C122.13 80.43 122.13 80.22 122.13 80.04C122.13 78.63 122.13 77.22 122.13 75.81C122.13 75.66 122.28 75.36 122.37 75.36C122.58 75.36 122.85 75.45 122.94 75.6C123.84 77.16 124.71 78.72 125.61 80.28C125.88 80.73 126.12 81.27 126.72 81.33C127.44 81.39 128.16 81.39 128.85 81.33C129.36 81.3 129.39 81.18 129.39 80.67C129.39 79.08 129.45 77.49 129.45 75.9C129.45 73.8 129.42 71.7 129.39 69.6C129.39 69.24 129.21 69 128.85 68.97C128.1 68.97 127.38 68.94 126.63 68.97C126.3 68.97 126.09 69.18 126.06 69.54C126.06 70.02 126 70.53 126 71.01C126 72.21 126 73.41 126 74.61C126 74.76 125.88 75 125.79 75.03C125.64 75.03 125.46 74.94 125.31 74.85C125.25 74.82 125.22 74.7 125.19 74.64C124.26 73.05 123.33 71.43 122.43 69.84C122.13 69.3 121.71 68.97 121.11 68.97C120.48 68.97 119.88 69 119.25 69.03C118.89 69.03 118.77 69.24 118.74 69.54C118.74 69.69 118.74 69.84 118.74 70.02C118.74 71.76 118.74 73.53 118.74 75.27C118.74 77.1 118.74 78.93 118.74 80.76L118.68 80.7ZM116.64 71.1C117.09 71.1 117.36 70.89 117.39 70.44C117.39 70.17 117.39 69.9 117.39 69.63C117.3 69.09 117.21 69.03 116.7 68.97C116.52 68.97 116.31 68.94 116.13 68.94C114.39 68.94 112.62 68.94 110.88 68.94C109.59 68.94 109.62 69.09 109.65 70.29C109.65 71.01 109.77 71.1 110.52 71.1C110.94 71.1 111.36 71.1 111.78 71.1C111.78 71.25 111.84 71.31 111.84 71.37C111.84 73.89 111.84 76.44 111.84 78.96C111.84 79.2 111.72 79.26 111.51 79.26C111.09 79.26 110.7 79.26 110.28 79.26C109.86 79.26 109.71 79.44 109.68 79.86C109.68 80.13 109.68 80.4 109.68 80.7C109.68 81.21 109.86 81.36 110.37 81.39C111.09 81.39 111.81 81.45 112.53 81.45C113.88 81.45 115.23 81.42 116.58 81.39C116.94 81.39 117.33 81.33 117.39 80.91C117.48 80.4 117.63 79.86 117.21 79.41C117.12 79.32 116.94 79.29 116.79 79.29C116.46 79.29 116.13 79.29 115.83 79.29C115.29 79.29 115.26 79.29 115.26 78.72C115.26 76.32 115.26 73.95 115.26 71.55C115.26 71.43 115.26 71.31 115.26 71.1C115.77 71.1 116.22 71.1 116.7 71.1H116.64ZM133.35 76.23C133.35 77.73 133.35 79.2 133.35 80.7C133.35 81.18 133.5 81.33 133.98 81.39C134.37 81.42 134.76 81.45 135.12 81.45C135.57 81.45 135.99 81.39 136.44 81.33C136.68 81.3 136.8 81.15 136.8 80.88C136.8 80.28 136.86 79.65 136.86 79.05C136.86 77.88 136.86 76.71 136.86 75.57C136.86 74.25 136.86 72.9 136.86 71.58C136.86 71.34 136.95 71.19 137.19 71.19C137.61 71.19 138.03 71.16 138.45 71.13C138.84 71.13 139.23 71.1 139.62 71.07C139.83 71.07 139.95 70.95 139.95 70.71C139.95 70.29 139.95 69.87 139.95 69.45C139.95 69.12 139.77 69 139.44 69C138.3 69 137.16 68.94 136.02 68.94C134.28 68.94 132.54 68.94 130.8 68.94C130.17 68.94 129.99 69.12 129.99 69.75C129.99 69.93 129.99 70.14 129.99 70.32C129.99 70.92 130.2 71.1 130.77 71.1C131.46 71.1 132.15 71.16 132.84 71.16C133.14 71.16 133.26 71.31 133.26 71.58C133.26 71.73 133.26 71.88 133.26 72.06C133.26 73.47 133.26 74.88 133.26 76.26L133.35 76.23ZM140.82 80.61C140.82 81.24 140.94 81.36 141.57 81.36C142.08 81.36 142.59 81.36 143.13 81.36C144.96 81.36 146.76 81.36 148.59 81.36C149.19 81.36 149.34 81.18 149.34 80.55C149.34 80.46 149.34 80.37 149.34 80.25C149.34 79.32 149.25 79.23 148.35 79.23C147.15 79.23 145.98 79.2 144.78 79.2C144.39 79.2 144.3 79.02 144.3 78.66C144.3 76.56 144.3 74.43 144.3 72.33C144.3 71.49 144.3 70.62 144.3 69.78C144.3 69.09 144.24 69 143.55 68.94C142.8 68.88 142.02 68.94 141.27 68.97C141.12 68.97 140.97 69.18 140.88 69.33C140.82 69.48 140.82 69.69 140.82 69.87C140.82 71.67 140.82 73.44 140.82 75.24C140.82 77.04 140.82 78.81 140.82 80.61Z" fill="#BEBEC0"/>
<defs>
<linearGradient id="paint0_linear_539_2102" x1="13.56" y1="82.38" x2="37.65" y2="52.71" gradientUnits="userSpaceOnUse">
<stop stop-color="#333333"/>
<stop offset="0.2" stop-color="#696969"/>
<stop offset="0.4" stop-color="#9E9E9E"/>
<stop offset="0.6" stop-color="#C8C8C8"/>
<stop offset="0.8" stop-color="#E6E6E6"/>
<stop offset="0.9" stop-color="#F8F8F8"/>
<stop offset="1" stop-color="white"/>
</linearGradient>
<linearGradient id="paint1_linear_539_2102" x1="-1.9205" y1="81.0227" x2="14.6925" y2="76.5713" gradientUnits="userSpaceOnUse">
<stop stop-color="#CFCFCF"/>
<stop offset="1" stop-color="#D6D6D6"/>
</linearGradient>
<linearGradient id="paint2_linear_539_2102" x1="21.0536" y1="75.8323" x2="9.21665" y2="63.9953" gradientUnits="userSpaceOnUse">
<stop stop-color="#CFCFCF"/>
<stop offset="1" stop-color="#D6D6D6"/>
</linearGradient>
</defs>
</svg>
