<svg width="150" height="150" viewBox="0 0 150 150" fill="none" xmlns="http://www.w3.org/2000/svg">
<path d="M16.71 75.96L15.27 75.54C14.97 75.45 14.85 75.36 14.88 75.24C14.91 75.15 15.12 75.09 15.48 75.09H21.81C22.17 75.09 22.32 75.15 22.32 75.27C22.32 75.36 22.23 75.42 22.02 75.51L20.79 75.96C20.22 76.17 19.95 76.56 19.95 77.07C19.95 78.75 20.07 80.4 20.28 82.08C17.79 83.49 15.06 84.21 12.06 84.21C9.06 84.21 8.04 83.82 6.42 83.01C3.12 81.33 1.26 78.45 0.81 74.37C0.78 73.92 0.75 73.47 0.75 73.02C0.75 69.69 1.86 67.11 4.05 65.22C6.57 63.09 9.63 62.01 13.2 62.01C16.77 62.01 17.49 62.37 19.86 63.06L19.41 68.22C19.41 68.52 19.32 68.64 19.17 68.61C19.05 68.61 18.96 68.43 18.87 68.13L18.33 65.61C18.24 65.22 18.15 64.95 18 64.77C17.88 64.59 17.58 64.41 17.13 64.23C16.05 63.72 14.7 63.48 13.17 63.48C10.74 63.48 8.67 64.05 6.93 65.19C4.41 66.81 3.21 69.48 3.27 73.2C3.3 74.88 3.63 76.38 4.2 77.73C4.92 79.44 6 80.7 7.44 81.48C9.06 82.35 10.65 82.8 12.21 82.8C13.77 82.8 15 82.44 16.38 81.75C17.22 81.33 17.67 80.73 17.67 79.95C17.73 78.3 17.61 77.13 17.34 76.47C17.25 76.26 17.04 76.11 16.68 75.99M24.9 65.76C24.96 67.62 24.99 70.08 24.99 73.17C24.99 76.23 24.99 78.72 24.9 80.58C24.9 81.39 24.9 81.87 24.84 82.02C24.78 82.35 24.63 82.56 24.36 82.62L22.74 83.1C22.41 83.19 22.26 83.31 22.26 83.43C22.26 83.55 22.44 83.58 22.83 83.58H35.37L35.52 79.11C35.52 78.99 35.46 78.9 35.37 78.9C35.28 78.9 35.13 79.02 35.04 79.29L34.23 81.39C34.14 81.66 33.99 81.84 33.81 81.9C33.63 81.96 33.3 81.99 32.85 81.99H27.99C27.54 81.99 27.33 81.75 27.33 81.24C27.27 78.87 27.24 76.17 27.24 73.14C27.24 70.11 27.24 67.59 27.33 65.73C27.33 64.95 27.33 64.47 27.39 64.35C27.45 63.99 27.63 63.75 27.9 63.69L29.52 63.21C29.85 63.12 30 63 30 62.88C30 62.76 29.82 62.73 29.43 62.73H22.83C22.44 62.73 22.26 62.79 22.26 62.88C22.26 62.97 22.41 63.09 22.74 63.21L24.36 63.69C24.63 63.78 24.78 63.99 24.84 64.35C24.87 64.47 24.9 64.95 24.9 65.73M50.85 79.05C50.85 78.93 50.79 78.84 50.7 78.84C50.61 78.84 50.46 78.96 50.34 79.23C49.92 80.37 49.65 81.09 49.56 81.36C49.47 81.63 49.32 81.78 49.14 81.84C48.96 81.9 48.63 81.93 48.18 81.93H41.94C41.49 81.93 41.28 81.69 41.28 81.18L41.19 73.47H46.8C47.31 73.47 47.64 73.68 47.79 74.13C48 74.85 48.18 75.48 48.33 76.02C48.42 76.32 48.51 76.41 48.66 76.38C48.75 76.35 48.81 76.14 48.81 75.75V70.32C48.81 70.2 48.75 70.11 48.63 70.11C48.54 70.11 48.45 70.17 48.39 70.32C48.27 70.74 48.12 71.1 48 71.37C47.85 71.7 47.7 71.88 47.58 71.97C47.46 72.06 47.19 72.06 46.83 72.06H41.22L41.31 64.83C41.31 64.5 41.34 64.29 41.43 64.2C41.52 64.11 41.7 64.08 42 64.08H45.96C47.46 64.08 48.33 64.17 48.54 64.32C48.78 64.47 49.14 65.19 49.62 66.48C49.74 66.78 49.83 66.93 49.92 66.9C50.01 66.9 50.07 66.69 50.07 66.33V62.43C48.69 62.55 47.01 62.61 45 62.67C42.9 62.7 40.17 62.73 36.84 62.73C33.51 62.73 36.27 62.79 36.27 62.88C36.27 62.97 36.42 63.09 36.75 63.21L38.37 63.69C38.64 63.78 38.79 63.99 38.85 64.35C38.88 64.5 38.91 64.95 38.91 65.73C38.97 67.68 39 70.14 39 73.14C39 76.14 39 78.54 38.91 80.55C38.91 81.36 38.91 81.84 38.85 81.99C38.79 82.32 38.64 82.53 38.37 82.59L36.75 83.07C36.42 83.16 36.27 83.28 36.27 83.4C36.27 83.52 36.45 83.55 36.84 83.55H50.79L50.94 79.08L50.85 79.05ZM73.14 83.88C73.02 82.35 72.96 81.24 72.96 80.52C72.9 78.57 72.87 76.11 72.87 73.11C72.87 70.11 72.87 67.74 72.96 65.7C72.96 64.92 72.96 64.44 73.02 64.29C73.08 63.96 73.23 63.72 73.5 63.66L75.15 63.18C75.45 63.09 75.6 62.97 75.6 62.85C75.6 62.73 75.42 62.7 75.06 62.7H69.15C68.76 62.7 68.58 62.76 68.58 62.85C68.58 62.94 68.73 63.06 69.06 63.18L70.68 63.66C70.98 63.75 71.13 63.96 71.19 64.32C71.22 64.44 71.25 64.92 71.25 65.7C71.31 67.74 71.34 70.2 71.34 73.11C71.34 76.02 71.34 78.3 71.28 79.74L59.58 67.23C57.36 64.74 55.92 63.06 55.23 62.16H53.73C53.82 63.78 53.88 64.98 53.88 65.7C53.94 67.74 53.97 70.2 53.97 73.11C53.97 76.02 53.97 78.57 53.88 80.52C53.88 81.33 53.88 81.81 53.82 81.93C53.76 82.29 53.61 82.5 53.34 82.56L51.72 83.04C51.39 83.13 51.24 83.25 51.24 83.37C51.24 83.49 51.42 83.52 51.81 83.52H57.72C58.08 83.52 58.26 83.46 58.26 83.37C58.26 83.28 58.11 83.16 57.81 83.04L56.16 82.56C55.89 82.47 55.74 82.26 55.68 81.93C55.65 81.78 55.62 81.3 55.62 80.52C55.56 78.57 55.53 76.11 55.53 73.11C55.53 70.11 55.53 67.98 55.59 66.36C60.84 71.94 64.86 76.23 67.65 79.26C69.6 81.48 70.89 83.01 71.58 83.88H73.14ZM79.17 81.93C81.27 83.46 83.79 84.21 86.7 84.21C89.61 84.21 91.08 83.76 93.6 82.83L94.41 77.73C94.41 77.61 94.38 77.55 94.29 77.55C94.17 77.55 94.02 77.76 93.87 78.18C93.63 78.78 93.51 79.14 93.45 79.26C93.06 80.04 92.67 80.61 92.31 80.97C91.05 82.14 89.16 82.74 86.58 82.74C84 82.74 84.84 82.65 84.15 82.44C80.73 81.48 78.57 79.29 77.64 75.84C77.46 75.09 77.34 74.25 77.34 73.32C77.34 70.35 78.15 68.04 79.77 66.39C81.6 64.5 84.12 63.57 87.27 63.57C90.42 63.57 88.92 63.66 89.64 63.84C90.57 64.08 91.26 64.53 91.71 65.19C92.04 65.67 92.34 66.48 92.64 67.62C92.76 68.04 92.88 68.25 93 68.25C93.12 68.25 93.18 68.1 93.18 67.83V62.94C91.35 62.37 89.46 62.07 87.54 62.07C84.75 62.07 82.32 62.67 80.31 63.9C78.51 64.98 77.16 66.39 76.2 68.04C75.36 69.51 74.88 71.1 74.79 72.78C74.61 76.62 76.11 79.68 79.23 81.96M103.65 64.02C100.59 64.8 98.55 66.78 97.56 69.96C97.29 70.83 97.17 71.76 97.17 72.75C97.17 75.54 98.04 77.85 99.78 79.71C101.52 81.57 103.74 82.5 106.47 82.5C109.2 82.5 107.94 82.41 108.6 82.26C111.93 81.45 114.03 79.44 114.93 76.23C115.17 75.45 115.29 74.58 115.29 73.68C115.29 72.33 115.08 71.04 114.63 69.78C114.12 68.43 113.43 67.35 112.56 66.51C110.67 64.68 108.45 63.78 105.9 63.78C103.35 63.78 104.4 63.87 103.68 64.05M100.71 63.51C101.94 62.91 103.38 62.49 105.03 62.28C105.63 62.19 106.26 62.16 106.86 62.16C110.43 62.16 113.28 63.48 115.44 66.09C116.97 67.98 117.75 70.35 117.75 73.23C117.75 76.11 117.63 75.27 117.39 76.2C116.91 78.03 115.95 79.65 114.48 81C113.13 82.26 111.48 83.16 109.62 83.7C108.21 84.12 106.86 84.33 105.57 84.33C102.87 84.33 100.47 83.43 98.37 81.63C97.11 80.55 96.15 79.14 95.49 77.37C94.92 75.93 94.65 74.46 94.65 72.93C94.65 71.4 94.65 72.15 94.71 71.79C95.19 68.01 97.2 65.25 100.74 63.51M122.79 73.14C124.14 73.14 125.28 72.93 126.12 72.51C127.71 71.73 128.55 70.5 128.64 68.79C128.73 67.11 128.04 65.82 126.57 64.89C125.76 64.38 124.77 64.14 123.63 64.14C122.49 64.14 122.76 64.2 122.49 64.32C122.13 64.47 121.95 64.71 121.95 65.01C121.95 65.01 121.95 65.28 121.95 65.82V73.11C122.25 73.11 122.52 73.11 122.82 73.11M116.91 62.97C116.91 62.88 117.09 62.82 117.48 62.82L123.39 62.7C125.22 62.67 126.51 62.76 127.32 63C128.73 63.39 129.84 64.29 130.65 65.67C131.1 66.42 131.31 67.32 131.31 68.34C131.31 69.36 131.04 70.5 130.5 71.4C129.63 72.81 128.07 73.8 125.82 74.34L132.12 81.48C133.38 82.8 135.84 84.96 137.7 85.86C137.88 85.95 139.41 86.61 140.55 86.79C141.57 86.94 144.45 87.06 144.3 87.15C141.75 88.74 137.88 87.63 136.02 86.79C134.73 86.19 130.89 83.04 128.82 80.91L122.73 74.61C122.64 74.61 122.37 74.61 121.95 74.61V80.61C121.95 81.36 121.95 81.81 122.01 81.99C122.07 82.35 122.25 82.59 122.52 82.65L124.14 83.13C124.47 83.22 124.62 83.34 124.62 83.46C124.62 83.58 124.44 83.61 124.05 83.61H117.45C117.06 83.61 116.88 83.55 116.88 83.46C116.88 83.37 117.03 83.25 117.36 83.13L118.98 82.65C119.25 82.56 119.4 82.35 119.46 82.02C119.49 81.9 119.52 81.42 119.52 80.61C119.58 78.66 119.61 76.2 119.61 73.2C119.61 70.2 119.61 67.83 119.52 65.79C119.52 65.01 119.52 64.53 119.46 64.41C119.4 64.05 119.25 63.84 118.98 63.75L117.36 63.27C117.03 63.18 116.88 63.06 116.88 62.94M149.37 79.08C149.37 78.96 149.31 78.87 149.22 78.87C149.13 78.87 148.98 79.02 148.86 79.26C148.44 80.4 148.17 81.12 148.08 81.39C147.96 81.66 147.84 81.81 147.66 81.87C147.48 81.93 147.15 81.96 146.7 81.96H140.46C140.01 81.96 139.8 81.72 139.8 81.21L139.71 73.5H145.32C145.83 73.5 146.16 73.71 146.31 74.16C146.52 74.88 146.7 75.51 146.85 76.05C146.94 76.35 147.03 76.44 147.18 76.41C147.27 76.38 147.33 76.17 147.33 75.78V70.35C147.33 70.23 147.27 70.14 147.15 70.14C147.06 70.14 146.97 70.2 146.91 70.35C146.79 70.77 146.64 71.13 146.52 71.4C146.37 71.73 146.22 71.91 146.1 72C145.98 72.06 145.71 72.09 145.35 72.09H139.74L139.83 64.86C139.83 64.53 139.86 64.32 139.95 64.23C140.04 64.14 140.22 64.11 140.52 64.11H144.45C145.95 64.11 146.82 64.2 147.03 64.35C147.27 64.5 147.63 65.22 148.11 66.51C148.23 66.81 148.32 66.96 148.41 66.93C148.5 66.93 148.56 66.72 148.56 66.36V62.46C147.18 62.58 145.5 62.64 143.49 62.7C141.39 62.73 138.66 62.76 135.33 62.76C132 62.76 134.76 62.82 134.76 62.91C134.76 63 134.91 63.12 135.24 63.24L136.86 63.72C137.13 63.81 137.28 64.02 137.34 64.38C137.37 64.5 137.4 64.98 137.4 65.76C137.46 67.71 137.49 70.17 137.49 73.17C137.49 76.17 137.49 78.57 137.4 80.58C137.4 81.39 137.4 81.87 137.34 82.02C137.28 82.35 137.13 82.56 136.86 82.62L135.24 83.1C134.91 83.19 134.76 83.31 134.76 83.43C134.76 83.55 134.94 83.58 135.33 83.58H149.28L149.43 79.11L149.37 79.08Z" fill="#BEBEC0"/>
</svg>
