<svg width="150" height="150" viewBox="0 0 150 150" fill="none" xmlns="http://www.w3.org/2000/svg">
<path d="M14.64 83.31C14.64 86.85 14.88 88.2 16.47 88.77C18.06 89.37 20.61 89.52 24.27 89.52C31.95 89.52 35.94 88.56 37.41 78.93H39.6L38.76 92.07H0.75V90C7.2 89.49 7.32 89.37 7.32 85.38V48.27C7.32 44.13 7.2 44.01 0.75 43.53V41.49H21.57V43.56C14.76 44.04 14.52 44.19 14.52 48.18V83.34H14.64V83.31ZM54.57 82.95C54.57 88.68 55.77 89.52 62.25 89.52C74.55 89.52 83.55 84.63 83.55 66.15C83.55 47.67 78.93 44.25 63.12 44.01C55.32 44.01 54.6 44.37 54.6 48.15V82.95H54.57ZM65.04 41.43C73.8 41.55 80.4 43.38 85.11 47.76C89.61 52.02 91.68 58.47 91.68 65.79C91.68 76.74 87.54 83.55 82.17 87.33C76.83 91.08 70.11 91.95 63.57 91.95H40.68V89.88C47.13 89.4 47.25 89.25 47.25 85.26V48.27C47.25 44.13 47.13 44.01 40.68 43.65V41.46H65.04V41.43ZM136.71 54.57H134.52C133.17 45.93 127.95 42.9 120.51 42.9C106.74 42.78 102 54.96 102 66.87C102 78.78 105.18 90.6 120.27 90.6C135.36 90.6 133.53 85.02 135.63 77.46H137.82L136.86 89.64C133.32 91.59 126.63 93.18 120.81 93.18C114.99 93.18 105.48 91.47 100.83 86.97C96.45 82.59 93.9 75.66 93.9 67.11C93.9 58.56 96.33 52.5 100.59 47.88C104.97 42.99 112.26 40.32 121.29 40.32C130.32 40.32 133.47 41.67 136.77 43.11V54.54L136.71 54.57Z" fill="#BEBEC0"/>
<path d="M144.63 92.82C147.18 92.82 149.25 90.75 149.25 88.2C149.25 85.65 147.18 83.58 144.63 83.58C142.08 83.58 140.01 85.65 140.01 88.2C140.01 90.75 142.08 92.82 144.63 92.82ZM3.41998 106.2H6.95998V107.28H2.09998V99.48H3.44998V106.2H3.41998ZM7.07998 104.25C7.07998 103.62 7.19998 103.17 7.43998 102.66C7.67998 102.15 7.91998 101.82 8.39998 101.58C8.75998 101.34 9.23998 101.22 9.86998 101.22C10.5 101.22 11.34 101.46 11.82 101.97C12.3 102.48 12.57 103.17 12.57 103.92V104.28C12.57 104.91 12.45 105.36 12.21 105.87C11.97 106.38 11.73 106.71 11.25 106.95C10.77 107.19 10.29 107.31 9.77997 107.31C8.93997 107.31 8.30998 107.07 7.82998 106.47C7.34998 105.96 7.07998 105.24 7.07998 104.25ZM8.27998 104.37C8.27998 105 8.39997 105.45 8.63998 105.72C8.87997 106.08 9.26998 106.2 9.59998 106.2C10.08 106.2 10.35 106.08 10.56 105.72C10.77 105.36 10.92 104.88 10.92 104.25C10.92 103.62 10.8 103.17 10.56 102.9C10.44 102.54 10.08 102.39 9.71998 102.39C9.35998 102.39 8.96998 102.51 8.75998 102.9C8.39998 103.26 8.27998 103.77 8.27998 104.37ZM16.68 106.71C16.32 107.22 15.72 107.46 15.09 107.46C14.46 107.46 14.01 107.22 13.62 106.83C13.23 106.44 13.14 105.99 13.14 105.24V101.49H14.49V105.24C14.49 105.99 14.85 106.32 15.45 106.32C16.05 106.32 16.53 106.08 16.8 105.57V101.43H18.15V107.28H16.95L16.74 106.68L16.68 106.71ZM19.14 99.99C19.14 99.75 19.26 99.63 19.38 99.48C19.5 99.36 19.74 99.24 19.86 99.24C19.98 99.24 20.22 99.36 20.37 99.48C20.49 99.6 20.61 99.72 20.61 99.99C20.61 100.26 20.49 100.35 20.37 100.47C20.25 100.59 20.01 100.71 19.86 100.71C19.71 100.71 19.5 100.59 19.38 100.47C19.26 100.35 19.14 100.11 19.14 99.99ZM20.49 107.28H19.14V101.43H20.49V107.28ZM24.99 105.69C24.99 105.45 24.87 105.33 24.75 105.18C24.51 105.06 24.24 104.94 23.79 104.82C23.31 104.7 22.95 104.58 22.71 104.46C22.08 104.1 21.75 103.71 21.75 103.11C21.75 102.51 21.99 102.15 22.38 101.91C22.74 101.55 23.34 101.43 23.97 101.43C24.6 101.43 25.17 101.55 25.68 101.91C26.16 102.27 26.31 102.66 26.31 103.26H24.96C24.96 103.02 24.84 102.78 24.72 102.63C24.48 102.51 24.24 102.39 23.97 102.39C23.7 102.39 23.49 102.51 23.22 102.63C23.1 102.75 22.98 102.99 22.98 103.11C22.98 103.35 23.1 103.47 23.22 103.62C23.34 103.77 23.73 103.86 24.18 103.98C24.66 104.1 25.02 104.22 25.38 104.34C25.62 104.46 25.86 104.7 26.01 104.97C26.16 105.24 26.25 105.45 26.25 105.81C26.25 106.29 26.01 106.77 25.62 107.01C25.14 107.37 24.66 107.52 23.91 107.52C23.16 107.52 23.07 107.4 22.71 107.28C22.35 107.16 22.08 106.92 21.87 106.53C21.63 106.17 21.51 105.9 21.51 105.57H22.71C22.71 105.93 22.83 106.08 23.07 106.32C23.31 106.44 23.55 106.56 23.91 106.56C24.27 106.56 24.54 106.44 24.66 106.32C25.02 106.08 25.02 105.84 25.02 105.69H24.99ZM29.85 107.28V99.48H32.16C32.91 99.48 33.51 99.6 33.99 99.99C34.5 100.35 34.95 100.74 35.19 101.34C35.43 101.97 35.7 102.54 35.7 103.29V103.65C35.7 104.4 35.58 105 35.19 105.6C34.95 106.23 34.44 106.56 33.99 106.95C33.51 107.19 32.79 107.43 32.16 107.43H29.85V107.28ZM31.2 100.47V106.05H32.04C32.79 106.05 33.24 105.81 33.63 105.42C33.99 104.91 34.26 104.34 34.26 103.47V102.96C34.26 102.12 34.02 101.49 33.63 101.01C33.27 100.53 32.79 100.38 32.04 100.38H31.2V100.44V100.47ZM39.72 102.66H39.21C38.58 102.66 38.25 102.9 38.01 103.41V107.31H36.66V101.46H37.86V102.09C38.22 101.58 38.61 101.34 39.21 101.34C39.81 101.34 39.57 101.34 39.72 101.46V102.66ZM42.9 107.28C42.06 107.28 41.43 107.04 40.95 106.53C40.47 106.02 40.2 105.33 40.2 104.46V104.34C40.2 103.71 40.32 103.26 40.56 102.75C40.8 102.24 41.07 101.91 41.52 101.67C41.88 101.43 42.36 101.31 42.87 101.31C43.62 101.31 44.22 101.55 44.7 102.06C45.18 102.57 45.33 103.26 45.33 104.25V104.76H41.58C41.58 105.24 41.82 105.6 42.06 105.84C42.3 106.08 42.69 106.2 43.14 106.2C43.59 106.2 44.22 105.96 44.61 105.45L45.36 106.08C45.12 106.44 44.85 106.71 44.4 106.92C43.77 107.28 43.38 107.28 42.9 107.28ZM42.66 102.42C42.3 102.42 42.03 102.54 41.82 102.78C41.58 103.02 41.46 103.41 41.46 103.86H43.89V103.74C43.89 103.23 43.77 102.99 43.53 102.78C43.41 102.51 43.05 102.42 42.69 102.42H42.66ZM48.12 105.33L49.32 101.43H50.67L48.36 108.12C48 109.08 47.4 109.59 46.53 109.59C45.66 109.59 46.17 109.59 45.9 109.47V108.51H46.14C46.5 108.51 46.77 108.51 46.89 108.39C47.01 108.27 47.13 108.03 47.25 107.76L47.49 107.25L45.42 101.52H46.89L48.09 105.3L48.12 105.33ZM52.14 107.25V102.36H51.3V101.4H52.14V100.92C52.14 100.29 52.26 99.84 52.62 99.45C52.98 99.09 53.46 98.97 54.09 98.97C54.72 98.97 54.57 98.97 54.84 99.09V100.05H54.36C53.73 100.05 53.4 100.41 53.4 101.01V101.52H54.6V102.36H53.4V107.25H52.17H52.14ZM59.1 106.65C58.74 107.16 58.14 107.4 57.51 107.4C56.88 107.4 56.43 107.16 56.04 106.77C55.65 106.38 55.53 105.93 55.53 105.18V101.43H56.88V105.18C56.88 105.93 57.24 106.26 57.84 106.26C58.44 106.26 58.92 106.02 59.19 105.51V101.37H60.39V107.22H59.19L59.1 106.62V106.65ZM64.95 105.66C64.95 105.42 64.83 105.3 64.71 105.15C64.47 104.91 64.08 104.79 63.63 104.79C63.15 104.67 62.79 104.55 62.55 104.43C61.92 104.07 61.59 103.68 61.59 103.08C61.59 102.48 61.83 102.12 62.22 101.88C62.58 101.52 63.18 101.4 63.81 101.4C64.44 101.4 65.01 101.52 65.52 101.88C66 102.24 66.15 102.63 66.15 103.23H64.8C64.8 102.99 64.68 102.75 64.56 102.6C64.32 102.48 64.08 102.36 63.81 102.36C63.54 102.36 63.33 102.48 63.06 102.6C62.94 102.6 62.94 102.72 62.94 102.96C62.94 103.2 63.06 103.32 63.18 103.47C63.3 103.62 63.69 103.71 64.14 103.83C64.62 103.95 64.98 104.07 65.34 104.19C65.58 104.31 65.82 104.55 65.97 104.82C66.09 105.06 66.21 105.3 66.21 105.66C66.21 106.14 65.97 106.62 65.58 106.86C65.1 107.22 64.62 107.34 63.87 107.34C63.12 107.34 63.03 107.22 62.67 107.1C62.31 106.98 62.04 106.74 61.83 106.35C61.59 105.99 61.47 105.72 61.47 105.39H62.67C62.67 105.75 62.79 105.9 63.03 106.14C63.27 106.26 63.54 106.38 63.87 106.38C64.2 106.38 64.5 106.26 64.62 106.14C64.83 106.02 64.98 105.78 64.98 105.66H64.95ZM75.78 104.7C75.66 105.54 75.42 106.17 74.82 106.65C74.31 107.16 73.62 107.4 72.63 107.4C71.64 107.4 71.43 107.28 71.04 106.92C70.56 106.68 70.2 106.17 69.96 105.72C69.72 105.24 69.6 104.52 69.6 103.77V103.02C69.6 102.27 69.72 101.67 69.96 101.07C70.2 100.44 70.59 100.11 71.04 99.72C71.52 99.48 72.12 99.21 72.75 99.21C73.38 99.21 74.34 99.45 74.82 99.96C75.3 100.44 75.66 101.04 75.78 101.91H74.43C74.31 101.28 74.19 100.95 73.95 100.71C73.71 100.47 73.32 100.35 72.87 100.35C72.42 100.35 71.79 100.59 71.52 100.98C71.16 101.49 71.04 102.06 71.04 102.93V103.68C71.04 104.52 71.16 105.15 71.52 105.63C71.76 106.11 72.27 106.26 72.87 106.26C73.47 106.26 73.83 106.14 74.07 105.9C74.31 105.66 74.55 105.27 74.55 104.7H75.75V104.76L75.78 104.7ZM76.38 104.19C76.38 103.56 76.5 103.11 76.74 102.6C76.98 102.09 77.22 101.76 77.7 101.52C78.06 101.28 78.54 101.16 79.17 101.16C79.8 101.16 80.64 101.4 81.12 101.91C81.6 102.42 81.87 103.11 81.87 103.86V104.22C81.87 104.85 81.75 105.3 81.51 105.81C81.27 106.32 81 106.65 80.55 106.89C80.19 107.13 79.71 107.25 79.08 107.25C78.45 107.25 77.61 107.01 77.13 106.41C76.65 105.9 76.38 105.18 76.38 104.19ZM77.73 104.31C77.73 104.94 77.85 105.39 78.09 105.66C78.33 106.02 78.72 106.14 79.05 106.14C79.53 106.14 79.8 106.02 80.01 105.66C80.25 105.3 80.37 104.82 80.37 104.19C80.37 103.56 80.25 103.11 80.01 102.84C79.77 102.48 79.38 102.33 79.05 102.33C78.72 102.33 78.3 102.45 78.09 102.84C77.85 103.2 77.73 103.71 77.73 104.31ZM83.82 101.4V102.03C84.18 101.52 84.78 101.28 85.53 101.28C86.28 101.28 86.88 101.52 87.12 102.12C87.48 101.49 88.08 101.28 88.95 101.28C89.82 101.28 90.03 101.4 90.42 101.79C90.81 102.18 90.9 102.63 90.9 103.38V107.28H89.55V103.53C89.55 103.17 89.43 102.9 89.31 102.69C89.07 102.57 88.83 102.45 88.47 102.45C88.11 102.45 87.99 102.57 87.72 102.69C87.45 102.81 87.36 103.05 87.36 103.32V107.31H86.01V103.56C86.01 102.81 85.65 102.6 84.93 102.6C84.21 102.6 84.09 102.84 83.85 103.23V107.34H82.5V101.49H83.85L83.82 101.4ZM96.96 104.31C96.96 105.15 96.72 105.9 96.33 106.5C95.97 107.01 95.37 107.34 94.74 107.34C94.11 107.34 93.66 107.1 93.15 106.71V109.5H91.8V101.46H93V102.09C93.36 101.61 93.84 101.34 94.59 101.34C95.34 101.34 95.79 101.58 96.3 102.09C96.66 102.6 96.93 103.32 96.93 104.28L96.96 104.31ZM95.61 104.19C95.61 103.56 95.49 103.11 95.25 102.84C95.01 102.48 94.62 102.33 94.29 102.33C93.81 102.33 93.33 102.57 93.21 102.96V105.51C93.45 106.02 93.84 106.26 94.29 106.26C94.74 106.26 95.04 106.14 95.25 105.78C95.49 105.42 95.61 104.94 95.61 104.19ZM101.19 107.22C101.19 107.1 101.07 106.98 101.07 106.74C100.71 107.22 100.11 107.37 99.6 107.37C99.09 107.37 98.52 107.25 98.13 106.89C97.74 106.53 97.5 106.14 97.5 105.69C97.5 105.24 97.74 104.61 98.25 104.22C98.76 103.86 99.33 103.74 100.2 103.74H101.04V103.38C101.04 103.14 100.92 102.87 100.8 102.63C100.68 102.51 100.44 102.39 100.05 102.39C99.66 102.39 99.57 102.51 99.3 102.63C99.03 102.75 99.06 102.99 99.06 103.26H97.77C97.77 102.9 97.89 102.63 98.13 102.42C98.37 102.21 98.61 101.94 98.97 101.79C99.33 101.67 99.72 101.55 100.17 101.55C100.92 101.55 101.37 101.67 101.76 102.03C102.15 102.39 102.39 102.87 102.39 103.5V106.05C102.39 106.56 102.51 107.01 102.63 107.25H101.16L101.19 107.22ZM99.84 106.29C100.08 106.29 100.35 106.17 100.59 106.05C100.83 105.93 100.95 105.81 101.07 105.54V104.46H100.32C99.81 104.46 99.48 104.58 99.24 104.7C99 104.82 98.88 105.06 98.88 105.45C98.88 105.84 99 105.96 99.12 106.08C99.24 106.17 99.48 106.29 99.84 106.29ZM104.85 101.4V102.03C105.33 101.52 105.81 101.28 106.56 101.28C107.76 101.28 108.39 102.03 108.39 103.35V107.25H107.04V103.5C107.04 103.14 106.92 102.87 106.8 102.66C106.68 102.54 106.44 102.42 106.05 102.42C105.66 102.42 105.09 102.66 104.85 103.17V107.28H103.5V101.43H104.85V101.4ZM111.54 105.3L112.74 101.4H114.09L111.78 108.09C111.42 109.05 110.82 109.56 109.95 109.56C109.08 109.56 109.59 109.56 109.32 109.44V108.48H109.56C109.92 108.48 110.19 108.48 110.31 108.36C110.43 108.24 110.55 108 110.67 107.73L110.91 107.22L108.84 101.49H110.31L111.51 105.27L111.54 105.3Z" fill="#E6E6E6"/>
</svg>
